<?xml version="1.0" standalone="no"?>
<!DOCTYPE svg PUBLIC "-//W3C//DTD SVG 20010904//EN"
 "http://www.w3.org/TR/2001/REC-SVG-20010904/DTD/svg10.dtd">
<svg version="1.0" xmlns="http://www.w3.org/2000/svg"
 width="449.000000pt" height="449.000000pt" viewBox="0 0 449.000000 449.000000"
 preserveAspectRatio="xMidYMid meet">
<metadata>
Created by potrace 1.14, written by Peter Selinger 2001-2017
</metadata>
<g transform="translate(0.000000,449.000000) scale(0.100000,-0.100000)"
fill="#000000" stroke="none">
<path d="M2100 4190 c-52 -4 -115 -13 -140 -20 -25 -6 -73 -18 -106 -25 -69
-16 -99 -28 -232 -92 -180 -88 -367 -235 -477 -377 -16 -22 -40 -51 -52 -67
-13 -15 -23 -30 -23 -35 0 -4 -6 -15 -14 -23 -7 -9 -31 -47 -51 -86 -21 -38
-41 -74 -45 -80 -7 -11 -58 -157 -84 -242 -35 -114 -52 -325 -36 -455 13 -113
71 -322 119 -433 5 -11 19 -42 31 -70 32 -72 186 -382 218 -436 44 -76 156
-269 167 -288 67 -116 383 -588 515 -769 58 -79 112 -154 120 -166 8 -12 48
-65 88 -118 82 -109 114 -129 177 -108 35 11 40 17 222 265 322 437 602 869
810 1250 61 112 169 334 193 397 11 29 25 62 30 73 5 11 25 72 45 135 20 63
40 128 46 145 23 73 33 240 21 361 -36 371 -182 662 -457 912 -123 112 -257
195 -449 276 -136 58 -430 93 -636 76z m328 -316 c148 -23 314 -86 413 -158
31 -22 68 -48 81 -56 12 -8 62 -53 109 -100 265 -262 381 -640 308 -1009 -21
-107 -25 -119 -85 -248 -83 -183 -212 -335 -381 -449 -74 -50 -86 -55 -99 -42
-12 11 -16 68 -23 289 -5 151 -6 279 -4 286 3 6 21 22 42 36 134 89 208 220
232 413 10 84 10 113 -4 190 -28 166 -123 318 -233 374 -58 29 -163 38 -219
20 -154 -51 -268 -241 -282 -468 -6 -94 7 -213 27 -250 5 -10 16 -37 25 -61
31 -84 125 -196 186 -221 15 -7 29 -17 31 -23 8 -24 -14 -682 -23 -693 -23
-28 -105 -39 -284 -38 -159 1 -190 4 -265 26 l-85 25 -7 99 c-11 148 -26 687
-20 702 2 7 23 22 46 33 80 38 137 111 155 197 7 32 11 176 11 357 0 263 -2
306 -16 319 -19 20 -38 20 -57 2 -16 -17 -23 -80 -37 -376 -6 -113 -12 -220
-15 -237 -7 -39 -36 -59 -64 -44 -24 13 -26 32 -41 366 -12 267 -12 270 -37
293 -31 28 -54 28 -85 -1 -28 -26 -25 1 -49 -427 -7 -113 -16 -211 -22 -217
-11 -15 -46 -17 -65 -5 -10 7 -15 85 -23 313 -8 238 -14 309 -25 327 -21 33
-41 37 -65 16 -20 -18 -21 -27 -19 -304 3 -341 10 -397 52 -459 17 -25 39 -52
49 -59 10 -7 25 -19 33 -28 9 -8 29 -20 46 -25 18 -7 32 -20 36 -34 7 -27 -14
-637 -22 -659 -7 -18 -20 -20 -37 -6 -7 6 -29 23 -50 40 -422 324 -560 917
-320 1375 33 63 103 175 123 196 76 83 154 157 200 192 30 23 57 44 60 47 22
22 168 94 250 122 188 66 327 77 548 42z"/>
</g>
</svg>
